{
  "accessors": [
    {
      "bufferView": 1,
      "componentType": 5123,
      "type": "SCALAR",
      "count": 1446
    },
    {
      "bufferView": 2,
      "componentType": 5126,
      "type": "VEC3",
      "count": 964,
      "min": [0, 2, 0],
      "max": [1, 16, 8]
    },
    {
      "bufferView": 2,
      "componentType": 5126,
      "type": "VEC3",
      "byteOffset": 12,
      "count": 964
    },
    {
      "bufferView": 2,
      "componentType": 5126,
      "type": "VEC2",
      "byteOffset": 24,
      "count": 964
    },
    {
      "bufferView": 3,
      "componentType": 5123,
      "type": "SCALAR",
      "count": 1572
    },
    {
      "bufferView": 4,
      "componentType": 5126,
      "type": "VEC3",
      "count": 1048,
      "min": [0, 0, 0],
      "max": [1, 15, 8]
    },
    {
      "bufferView": 4,
      "componentType": 5126,
      "type": "VEC3",
      "byteOffset": 12,
      "count": 1048
    },
    {
      "bufferView": 4,
      "componentType": 5126,
      "type": "VEC2",
      "byteOffset": 24,
      "count": 1048
    },
    {
      "bufferView": 5,
      "componentType": 5123,
      "type": "SCALAR",
      "count": 672
    },
    {
      "bufferView": 6,
      "componentType": 5126,
      "type": "VEC3",
      "count": 448,
      "min": [0, 6, 11],
      "max": [2, 16, 16]
    },
    {
      "bufferView": 6,
      "componentType": 5126,
      "type": "VEC3",
      "byteOffset": 12,
      "count": 448
    },
    {
      "bufferView": 6,
      "componentType": 5126,
      "type": "VEC2",
      "byteOffset": 24,
      "count": 448
    },
    {
      "bufferView": 7,
      "componentType": 5123,
      "type": "SCALAR",
      "count": 726
    },
    {
      "bufferView": 8,
      "componentType": 5126,
      "type": "VEC3",
      "count": 484,
      "min": [0, 0, 11],
      "max": [1, 12, 16]
    },
    {
      "bufferView": 8,
      "componentType": 5126,
      "type": "VEC3",
      "byteOffset": 12,
      "count": 484
    },
    {
      "bufferView": 8,
      "componentType": 5126,
      "type": "VEC2",
      "byteOffset": 24,
      "count": 484
    }
  ],
  "asset": {
    "generator": "goxel",
    "version": "2.0"
  },
  "bufferViews": [
    {
      "buffer": 0,
      "byteLength": 85
    },
    {
      "buffer": 2,
      "byteLength": 2892
    },
    {
      "buffer": 1,
      "byteLength": 30848,
      "byteStride": 32
    },
    {
      "buffer": 4,
      "byteLength": 3144
    },
    {
      "buffer": 3,
      "byteLength": 33536,
      "byteStride": 32
    },
    {
      "buffer": 6,
      "byteLength": 1344
    },
    {
      "buffer": 5,
      "byteLength": 14336,
      "byteStride": 32
    },
    {
      "buffer": 8,
      "byteLength": 1452
    },
    {
      "buffer": 7,
      "byteLength": 15488,
      "byteStride": 32
    }
  ],
  "buffers": [
    {
      "uri": "data:application/octet-stream;base64,",
      "byteLength": 85
    },
    {
      "uri": "data:application/octet-stream;base64,",
      "byteLength": 30848
    },
    {
      "uri": "data:application/octet-stream;base64,",
      "byteLength": 2892
    },
    {
      "uri": "data:application/octet-stream;base64,",
      "byteLength": 33536
    },
    {
      "uri": "data:application/octet-stream;base64,",
      "byteLength": 3144
    },
    {
      "uri": "data:application/octet-stream;base64,",
      "byteLength": 14336
    },
    {
      "uri": "data:application/octet-stream;base64,",
      "byteLength": 1344
    },
    {
      "uri": "data:application/octet-stream;base64,",
      "byteLength": 15488
    },
    {
      "uri": "data:application/octet-stream;base64,",
      "byteLength": 1452
    }
  ],
  "images": [
    {
      "bufferView": 0,
      "mimeType": "image/png"
    }
  ],
  "meshes": [
    {
      "primitives": [
        {
          "indices": 0,
          "material": 0,
          "attributes": {
            "POSITION": 1,
            "NORMAL": 2,
            "TEXCOORD_0": 3
          }
        }
      ]
    },
    {
      "primitives": [
        {
          "indices": 4,
          "material": 0,
          "attributes": {
            "POSITION": 5,
            "NORMAL": 6,
            "TEXCOORD_0": 7
          }
        }
      ]
    },
    {
      "primitives": [
        {
          "indices": 8,
          "material": 0,
          "attributes": {
            "POSITION": 9,
            "NORMAL": 10,
            "TEXCOORD_0": 11
          }
        }
      ]
    },
    {
      "primitives": [
        {
          "indices": 12,
          "material": 0,
          "attributes": {
            "POSITION": 13,
            "NORMAL": 14,
            "TEXCOORD_0": 15
          }
        }
      ]
    }
  ],
  "materials": [
    {
      "name": "Material.1",
      "pbrMetallicRoughness": {
        "baseColorTexture": {
          "index": 0
        },
        "metallicFactor": 0.200000003,
        "roughnessFactor": 0.5
      }
    }
  ],
  "nodes": [
    {
      "children": [ 5 ],
      "matrix": [1, 0, 0, 0, 0, 0, -1, 0, 0, 1, 0, 0, 0, 0, 0, 1]
    },
    {
      "mesh": 0,
      "translation": [-16, -16, 16]
    },
    {
      "mesh": 1,
      "translation": [-16, 0, 16]
    },
    {
      "mesh": 2,
      "translation": [-16, -16, 0]
    },
    {
      "mesh": 3,
      "translation": [-16, 0, 0]
    },
    {
      "children": [ 1, 2, 3, 4 ]
    }
  ],
  "scenes": [
    {
      "nodes": [ 0 ]
    }
  ],
  "textures": [
    {
      "source": 0
    }
  ]
}
