{
  "accessors": [
    {
      "bufferView": 1,
      "componentType": 5123,
      "type": "SCALAR",
      "count": 1848
    },
    {
      "bufferView": 2,
      "componentType": 5126,
      "type": "VEC3",
      "count": 1232,
      "min": [10, 7, 0],
      "max": [16, 16, 16]
    },
    {
      "bufferView": 2,
      "componentType": 5126,
      "type": "VEC3",
      "byteOffset": 12,
      "count": 1232
    },
    {
      "bufferView": 2,
      "componentType": 5126,
      "type": "VEC2",
      "byteOffset": 24,
      "count": 1232
    },
    {
      "bufferView": 3,
      "componentType": 5123,
      "type": "SCALAR",
      "count": 1758
    },
    {
      "bufferView": 4,
      "componentType": 5126,
      "type": "VEC3",
      "count": 1172,
      "min": [0, 7, 0],
      "max": [5, 16, 16]
    },
    {
      "bufferView": 4,
      "componentType": 5126,
      "type": "VEC3",
      "byteOffset": 12,
      "count": 1172
    },
    {
      "bufferView": 4,
      "componentType": 5126,
      "type": "VEC2",
      "byteOffset": 24,
      "count": 1172
    },
    {
      "bufferView": 5,
      "componentType": 5123,
      "type": "SCALAR",
      "count": 1242
    },
    {
      "bufferView": 6,
      "componentType": 5126,
      "type": "VEC3",
      "count": 828,
      "min": [10, 0, 0],
      "max": [16, 7, 16]
    },
    {
      "bufferView": 6,
      "componentType": 5126,
      "type": "VEC3",
      "byteOffset": 12,
      "count": 828
    },
    {
      "bufferView": 6,
      "componentType": 5126,
      "type": "VEC2",
      "byteOffset": 24,
      "count": 828
    },
    {
      "bufferView": 7,
      "componentType": 5123,
      "type": "SCALAR",
      "count": 1218
    },
    {
      "bufferView": 8,
      "componentType": 5126,
      "type": "VEC3",
      "count": 812,
      "min": [0, 0, 0],
      "max": [5, 7, 16]
    },
    {
      "bufferView": 8,
      "componentType": 5126,
      "type": "VEC3",
      "byteOffset": 12,
      "count": 812
    },
    {
      "bufferView": 8,
      "componentType": 5126,
      "type": "VEC2",
      "byteOffset": 24,
      "count": 812
    },
    {
      "bufferView": 9,
      "componentType": 5123,
      "type": "SCALAR",
      "count": 354
    },
    {
      "bufferView": 10,
      "componentType": 5126,
      "type": "VEC3",
      "count": 236,
      "min": [10, 7, 0],
      "max": [16, 16, 2]
    },
    {
      "bufferView": 10,
      "componentType": 5126,
      "type": "VEC3",
      "byteOffset": 12,
      "count": 236
    },
    {
      "bufferView": 10,
      "componentType": 5126,
      "type": "VEC2",
      "byteOffset": 24,
      "count": 236
    },
    {
      "bufferView": 11,
      "componentType": 5123,
      "type": "SCALAR",
      "count": 336
    },
    {
      "bufferView": 12,
      "componentType": 5126,
      "type": "VEC3",
      "count": 224,
      "min": [0, 7, 0],
      "max": [5, 16, 2]
    },
    {
      "bufferView": 12,
      "componentType": 5126,
      "type": "VEC3",
      "byteOffset": 12,
      "count": 224
    },
    {
      "bufferView": 12,
      "componentType": 5126,
      "type": "VEC2",
      "byteOffset": 24,
      "count": 224
    },
    {
      "bufferView": 13,
      "componentType": 5123,
      "type": "SCALAR",
      "count": 276
    },
    {
      "bufferView": 14,
      "componentType": 5126,
      "type": "VEC3",
      "count": 184,
      "min": [11, 0, 0],
      "max": [16, 7, 2]
    },
    {
      "bufferView": 14,
      "componentType": 5126,
      "type": "VEC3",
      "byteOffset": 12,
      "count": 184
    },
    {
      "bufferView": 14,
      "componentType": 5126,
      "type": "VEC2",
      "byteOffset": 24,
      "count": 184
    },
    {
      "bufferView": 15,
      "componentType": 5123,
      "type": "SCALAR",
      "count": 276
    },
    {
      "bufferView": 16,
      "componentType": 5126,
      "type": "VEC3",
      "count": 184,
      "min": [0, 0, 0],
      "max": [5, 7, 2]
    },
    {
      "bufferView": 16,
      "componentType": 5126,
      "type": "VEC3",
      "byteOffset": 12,
      "count": 184
    },
    {
      "bufferView": 16,
      "componentType": 5126,
      "type": "VEC2",
      "byteOffset": 24,
      "count": 184
    }
  ],
  "asset": {
    "generator": "goxel",
    "version": "2.0"
  },
  "bufferViews": [
    {
      "buffer": 0,
      "byteLength": 92
    },
    {
      "buffer": 2,
      "byteLength": 3696
    },
    {
      "buffer": 1,
      "byteLength": 39424,
      "byteStride": 32
    },
    {
      "buffer": 4,
      "byteLength": 3516
    },
    {
      "buffer": 3,
      "byteLength": 37504,
      "byteStride": 32
    },
    {
      "buffer": 6,
      "byteLength": 2484
    },
    {
      "buffer": 5,
      "byteLength": 26496,
      "byteStride": 32
    },
    {
      "buffer": 8,
      "byteLength": 2436
    },
    {
      "buffer": 7,
      "byteLength": 25984,
      "byteStride": 32
    },
    {
      "buffer": 10,
      "byteLength": 708
    },
    {
      "buffer": 9,
      "byteLength": 7552,
      "byteStride": 32
    },
    {
      "buffer": 12,
      "byteLength": 672
    },
    {
      "buffer": 11,
      "byteLength": 7168,
      "byteStride": 32
    },
    {
      "buffer": 14,
      "byteLength": 552
    },
    {
      "buffer": 13,
      "byteLength": 5888,
      "byteStride": 32
    },
    {
      "buffer": 16,
      "byteLength": 552
    },
    {
      "buffer": 15,
      "byteLength": 5888,
      "byteStride": 32
    }
  ],
  "buffers": [
    {
      "uri": "data:application/octet-stream;base64,",
      "byteLength": 92
    },
    {
      "uri": "data:application/octet-stream;base64,",
      "byteLength": 39424
    },
    {
      "uri": "data:application/octet-stream;base64,",
      "byteLength": 3696
    },
    {
      "uri": "data:application/octet-stream;base64,",
      "byteLength": 37504
    },
    {
      "uri": "data:application/octet-stream;base64,",
      "byteLength": 3516
    },
    {
      "uri": "data:application/octet-stream;base64,",
      "byteLength": 26496
    },
    {
      "uri": "data:application/octet-stream;base64,",
      "byteLength": 2484
    },
    {
      "uri": "data:application/octet-stream;base64,",
      "byteLength": 25984
    },
    {
      "uri": "data:application/octet-stream;base64,",
      "byteLength": 2436
    },
    {
      "uri": "data:application/octet-stream;base64,",
      "byteLength": 7552
    },
    {
      "uri": "data:application/octet-stream;base64,",
      "byteLength": 708
    },
    {
      "uri": "data:application/octet-stream;base64,",
      "byteLength": 7168
    },
    {
      "uri": "data:application/octet-stream;base64,",
      "byteLength": 672
    },
    {
      "uri": "data:application/octet-stream;base64,",
      "byteLength": 5888
    },
    {
      "uri": "data:application/octet-stream;base64,",
      "byteLength": 552
    },
    {
      "uri": "data:application/octet-stream;base64,",
      "byteLength": 5888
    },
    {
      "uri": "data:application/octet-stream;base64,",
      "byteLength": 552
    }
  ],
  "images": [
    {
      "bufferView": 0,
      "mimeType": "image/png"
    }
  ],
  "meshes": [
    {
      "primitives": [
        {
          "indices": 0,
          "material": 0,
          "attributes": {
            "POSITION": 1,
            "NORMAL": 2,
            "TEXCOORD_0": 3
          }
        }
      ]
    },
    {
      "primitives": [
        {
          "indices": 4,
          "material": 0,
          "attributes": {
            "POSITION": 5,
            "NORMAL": 6,
            "TEXCOORD_0": 7
          }
        }
      ]
    },
    {
      "primitives": [
        {
          "indices": 8,
          "material": 0,
          "attributes": {
            "POSITION": 9,
            "NORMAL": 10,
            "TEXCOORD_0": 11
          }
        }
      ]
    },
    {
      "primitives": [
        {
          "indices": 12,
          "material": 0,
          "attributes": {
            "POSITION": 13,
            "NORMAL": 14,
            "TEXCOORD_0": 15
          }
        }
      ]
    },
    {
      "primitives": [
        {
          "indices": 16,
          "material": 0,
          "attributes": {
            "POSITION": 17,
            "NORMAL": 18,
            "TEXCOORD_0": 19
          }
        }
      ]
    },
    {
      "primitives": [
        {
          "indices": 20,
          "material": 0,
          "attributes": {
            "POSITION": 21,
            "NORMAL": 22,
            "TEXCOORD_0": 23
          }
        }
      ]
    },
    {
      "primitives": [
        {
          "indices": 24,
          "material": 0,
          "attributes": {
            "POSITION": 25,
            "NORMAL": 26,
            "TEXCOORD_0": 27
          }
        }
      ]
    },
    {
      "primitives": [
        {
          "indices": 28,
          "material": 0,
          "attributes": {
            "POSITION": 29,
            "NORMAL": 30,
            "TEXCOORD_0": 31
          }
        }
      ]
    }
  ],
  "materials": [
    {
      "name": "Material.1",
      "pbrMetallicRoughness": {
        "baseColorTexture": {
          "index": 0
        },
        "metallicFactor": 0.200000003,
        "roughnessFactor": 0.5
      }
    }
  ],
  "nodes": [
    {
      "children": [ 9 ],
      "matrix": [1, 0, 0, 0, 0, 0, -1, 0, 0, 1, 0, 0, 0, 0, 0, 1]
    },
    {
      "mesh": 0,
      "translation": [-16, -16, 0]
    },
    {
      "mesh": 1,
      "translation": [0, -16, 0]
    },
    {
      "mesh": 2,
      "translation": [-16, 0, 0]
    },
    {
      "mesh": 3,
      "translation": [0, 0, 0]
    },
    {
      "mesh": 4,
      "translation": [-16, -16, 16]
    },
    {
      "mesh": 5,
      "translation": [0, -16, 16]
    },
    {
      "mesh": 6,
      "translation": [-16, 0, 16]
    },
    {
      "mesh": 7,
      "translation": [0, 0, 16]
    },
    {
      "children": [ 1, 2, 3, 4, 5, 6, 7, 8 ]
    }
  ],
  "scenes": [
    {
      "nodes": [ 0 ]
    }
  ],
  "textures": [
    {
      "source": 0
    }
  ]
}
