{
  "accessors": [
    {
      "bufferView": 1,
      "componentType": 5123,
      "type": "SCALAR",
      "count": 6408
    },
    {
      "bufferView": 2,
      "componentType": 5126,
      "type": "VEC3",
      "count": 4272,
      "min": [0, 0, 0],
      "max": [16, 16, 14]
    },
    {
      "bufferView": 2,
      "componentType": 5126,
      "type": "VEC3",
      "byteOffset": 12,
      "count": 4272
    },
    {
      "bufferView": 2,
      "componentType": 5126,
      "type": "VEC2",
      "byteOffset": 24,
      "count": 4272
    },
    {
      "bufferView": 3,
      "componentType": 5123,
      "type": "SCALAR",
      "count": 5940
    },
    {
      "bufferView": 4,
      "componentType": 5126,
      "type": "VEC3",
      "count": 3960,
      "min": [0, 0, 0],
      "max": [16, 16, 11]
    },
    {
      "bufferView": 4,
      "componentType": 5126,
      "type": "VEC3",
      "byteOffset": 12,
      "count": 3960
    },
    {
      "bufferView": 4,
      "componentType": 5126,
      "type": "VEC2",
      "byteOffset": 24,
      "count": 3960
    },
    {
      "bufferView": 5,
      "componentType": 5123,
      "type": "SCALAR",
      "count": 6462
    },
    {
      "bufferView": 6,
      "componentType": 5126,
      "type": "VEC3",
      "count": 4308,
      "min": [0, 0, 0],
      "max": [16, 16, 14]
    },
    {
      "bufferView": 6,
      "componentType": 5126,
      "type": "VEC3",
      "byteOffset": 12,
      "count": 4308
    },
    {
      "bufferView": 6,
      "componentType": 5126,
      "type": "VEC2",
      "byteOffset": 24,
      "count": 4308
    },
    {
      "bufferView": 7,
      "componentType": 5123,
      "type": "SCALAR",
      "count": 6102
    },
    {
      "bufferView": 8,
      "componentType": 5126,
      "type": "VEC3",
      "count": 4068,
      "min": [0, 0, 0],
      "max": [16, 16, 12]
    },
    {
      "bufferView": 8,
      "componentType": 5126,
      "type": "VEC3",
      "byteOffset": 12,
      "count": 4068
    },
    {
      "bufferView": 8,
      "componentType": 5126,
      "type": "VEC2",
      "byteOffset": 24,
      "count": 4068
    }
  ],
  "asset": {
    "generator": "goxel",
    "version": "2.0"
  },
  "bufferViews": [
    {
      "buffer": 0,
      "byteLength": 94
    },
    {
      "buffer": 2,
      "byteLength": 12816
    },
    {
      "buffer": 1,
      "byteLength": 136704,
      "byteStride": 32
    },
    {
      "buffer": 4,
      "byteLength": 11880
    },
    {
      "buffer": 3,
      "byteLength": 126720,
      "byteStride": 32
    },
    {
      "buffer": 6,
      "byteLength": 12924
    },
    {
      "buffer": 5,
      "byteLength": 137856,
      "byteStride": 32
    },
    {
      "buffer": 8,
      "byteLength": 12204
    },
    {
      "buffer": 7,
      "byteLength": 130176,
      "byteStride": 32
    }
  ],
  "buffers": [
    {
      "uri": "data:application/octet-stream;base64,",
      "byteLength": 94
    },
    {
      "uri": "data:application/octet-stream;base64,",
      "byteLength": 136704
    },
    {
      "uri": "data:application/octet-stream;base64,",
      "byteLength": 12816
    },
    {
      "uri": "data:application/octet-stream;base64,",
      "byteLength": 126720
    },
    {
      "uri": "data:application/octet-stream;base64,",
      "byteLength": 11880
    },
    {
      "uri": "data:application/octet-stream;base64,",
      "byteLength": 137856
    },
    {
      "uri": "data:application/octet-stream;base64,",
      "byteLength": 12924
    },
    {
      "uri": "data:application/octet-stream;base64,",
      "byteLength": 130176
    },
    {
      "uri": "data:application/octet-stream;base64,",
      "byteLength": 12204
    }
  ],
  "images": [
    {
      "bufferView": 0,
      "mimeType": "image/png"
    }
  ],
  "meshes": [
    {
      "primitives": [
        {
          "indices": 0,
          "material": 0,
          "attributes": {
            "POSITION": 1,
            "NORMAL": 2,
            "TEXCOORD_0": 3
          }
        }
      ]
    },
    {
      "primitives": [
        {
          "indices": 4,
          "material": 0,
          "attributes": {
            "POSITION": 5,
            "NORMAL": 6,
            "TEXCOORD_0": 7
          }
        }
      ]
    },
    {
      "primitives": [
        {
          "indices": 8,
          "material": 0,
          "attributes": {
            "POSITION": 9,
            "NORMAL": 10,
            "TEXCOORD_0": 11
          }
        }
      ]
    },
    {
      "primitives": [
        {
          "indices": 12,
          "material": 0,
          "attributes": {
            "POSITION": 13,
            "NORMAL": 14,
            "TEXCOORD_0": 15
          }
        }
      ]
    }
  ],
  "materials": [
    {
      "name": "Material.1",
      "pbrMetallicRoughness": {
        "baseColorTexture": {
          "index": 0
        },
      "metallicFactor": 0.2,
      "roughnessFactor": 0.5
      }
    }
  ],
  "nodes": [
    {
      "children": [ 5 ],
      "matrix": [1, 0, 0, 0, 0, 0, -1, 0, 0, 1, 0, 0, 0, 0, 0, 1]
    },
    {
      "mesh": 0,
      "translation": [-16, 0, 0]
    },
    {
      "mesh": 1,
      "translation": [0, 0, 0]
    },
    {
      "mesh": 2,
      "translation": [-16, -16, 0]
    },
    {
      "mesh": 3,
      "translation": [0, -16, 0]
    },
    {
      "children": [ 1, 2, 3, 4 ]
    }
  ],
  "scenes": [
    {
      "nodes": [ 0 ]
    }
  ],
  "textures": [
    {
      "source": 0
    }
  ]
}
