{
  "accessors": [
    {
      "bufferView": 1,
      "componentType": 5123,
      "type": "SCALAR",
      "count": 1572
    },
    {
      "bufferView": 2,
      "componentType": 5126,
      "type": "VEC3",
      "count": 1048,
      "min": [14, 4, 0],
      "max": [16, 16, 16]
    },
    {
      "bufferView": 2,
      "componentType": 5126,
      "type": "VEC3",
      "byteOffset": 12,
      "count": 1048
    },
    {
      "bufferView": 2,
      "componentType": 5126,
      "type": "VEC2",
      "byteOffset": 24,
      "count": 1048
    },
    {
      "bufferView": 3,
      "componentType": 5123,
      "type": "SCALAR",
      "count": 354
    },
    {
      "bufferView": 4,
      "componentType": 5126,
      "type": "VEC3",
      "count": 236,
      "min": [0, 4, 7],
      "max": [1, 16, 16]
    },
    {
      "bufferView": 4,
      "componentType": 5126,
      "type": "VEC3",
      "byteOffset": 12,
      "count": 236
    },
    {
      "bufferView": 4,
      "componentType": 5126,
      "type": "VEC2",
      "byteOffset": 24,
      "count": 236
    },
    {
      "bufferView": 5,
      "componentType": 5123,
      "type": "SCALAR",
      "count": 978
    },
    {
      "bufferView": 6,
      "componentType": 5126,
      "type": "VEC3",
      "count": 652,
      "min": [14, 0, 6],
      "max": [16, 10, 16]
    },
    {
      "bufferView": 6,
      "componentType": 5126,
      "type": "VEC3",
      "byteOffset": 12,
      "count": 652
    },
    {
      "bufferView": 6,
      "componentType": 5126,
      "type": "VEC2",
      "byteOffset": 24,
      "count": 652
    },
    {
      "bufferView": 7,
      "componentType": 5123,
      "type": "SCALAR",
      "count": 288
    },
    {
      "bufferView": 8,
      "componentType": 5126,
      "type": "VEC3",
      "count": 192,
      "min": [0, 0, 9],
      "max": [1, 10, 16]
    },
    {
      "bufferView": 8,
      "componentType": 5126,
      "type": "VEC3",
      "byteOffset": 12,
      "count": 192
    },
    {
      "bufferView": 8,
      "componentType": 5126,
      "type": "VEC2",
      "byteOffset": 24,
      "count": 192
    },
    {
      "bufferView": 9,
      "componentType": 5123,
      "type": "SCALAR",
      "count": 1128
    },
    {
      "bufferView": 10,
      "componentType": 5126,
      "type": "VEC3",
      "count": 752,
      "min": [14, 4, 0],
      "max": [16, 16, 7]
    },
    {
      "bufferView": 10,
      "componentType": 5126,
      "type": "VEC3",
      "byteOffset": 12,
      "count": 752
    },
    {
      "bufferView": 10,
      "componentType": 5126,
      "type": "VEC2",
      "byteOffset": 24,
      "count": 752
    },
    {
      "bufferView": 11,
      "componentType": 5123,
      "type": "SCALAR",
      "count": 948
    },
    {
      "bufferView": 12,
      "componentType": 5126,
      "type": "VEC3",
      "count": 632,
      "min": [14, 0, 0],
      "max": [16, 10, 7]
    },
    {
      "bufferView": 12,
      "componentType": 5126,
      "type": "VEC3",
      "byteOffset": 12,
      "count": 632
    },
    {
      "bufferView": 12,
      "componentType": 5126,
      "type": "VEC2",
      "byteOffset": 24,
      "count": 632
    },
    {
      "bufferView": 13,
      "componentType": 5123,
      "type": "SCALAR",
      "count": 324
    },
    {
      "bufferView": 14,
      "componentType": 5126,
      "type": "VEC3",
      "count": 216,
      "min": [0, 4, 0],
      "max": [1, 16, 7]
    },
    {
      "bufferView": 14,
      "componentType": 5126,
      "type": "VEC3",
      "byteOffset": 12,
      "count": 216
    },
    {
      "bufferView": 14,
      "componentType": 5126,
      "type": "VEC2",
      "byteOffset": 24,
      "count": 216
    },
    {
      "bufferView": 15,
      "componentType": 5123,
      "type": "SCALAR",
      "count": 288
    },
    {
      "bufferView": 16,
      "componentType": 5126,
      "type": "VEC3",
      "count": 192,
      "min": [0, 0, 0],
      "max": [1, 10, 7]
    },
    {
      "bufferView": 16,
      "componentType": 5126,
      "type": "VEC3",
      "byteOffset": 12,
      "count": 192
    },
    {
      "bufferView": 16,
      "componentType": 5126,
      "type": "VEC2",
      "byteOffset": 24,
      "count": 192
    }
  ],
  "asset": {
    "generator": "goxel",
    "version": "2.0"
  },
  "bufferViews": [
    {
      "buffer": 0,
      "byteLength": 87
    },
    {
      "buffer": 2,
      "byteLength": 3144
    },
    {
      "buffer": 1,
      "byteLength": 33536,
      "byteStride": 32
    },
    {
      "buffer": 4,
      "byteLength": 708
    },
    {
      "buffer": 3,
      "byteLength": 7552,
      "byteStride": 32
    },
    {
      "buffer": 6,
      "byteLength": 1956
    },
    {
      "buffer": 5,
      "byteLength": 20864,
      "byteStride": 32
    },
    {
      "buffer": 8,
      "byteLength": 576
    },
    {
      "buffer": 7,
      "byteLength": 6144,
      "byteStride": 32
    },
    {
      "buffer": 10,
      "byteLength": 2256
    },
    {
      "buffer": 9,
      "byteLength": 24064,
      "byteStride": 32
    },
    {
      "buffer": 12,
      "byteLength": 1896
    },
    {
      "buffer": 11,
      "byteLength": 20224,
      "byteStride": 32
    },
    {
      "buffer": 14,
      "byteLength": 648
    },
    {
      "buffer": 13,
      "byteLength": 6912,
      "byteStride": 32
    },
    {
      "buffer": 16,
      "byteLength": 576
    },
    {
      "buffer": 15,
      "byteLength": 6144,
      "byteStride": 32
    }
  ],
  "buffers": [
    {
      "uri": "data:application/octet-stream;base64,",
      "byteLength": 87
    },
    {
      "uri": "data:application/octet-stream;base64,",
      "byteLength": 33536
    },
    {
      "uri": "data:application/octet-stream;base64,",
      "byteLength": 3144
    },
    {
      "uri": "data:application/octet-stream;base64,",
      "byteLength": 7552
    },
    {
      "uri": "data:application/octet-stream;base64,",
      "byteLength": 708
    },
    {
      "uri": "data:application/octet-stream;base64,",
      "byteLength": 20864
    },
    {
      "uri": "data:application/octet-stream;base64,",
      "byteLength": 1956
    },
    {
      "uri": "data:application/octet-stream;base64,",
      "byteLength": 6144
    },
    {
      "uri": "data:application/octet-stream;base64,",
      "byteLength": 576
    },
    {
      "uri": "data:application/octet-stream;base64,",
      "byteLength": 24064
    },
    {
      "uri": "data:application/octet-stream;base64,",
      "byteLength": 2256
    },
    {
      "uri": "data:application/octet-stream;base64,",
      "byteLength": 20224
    },
    {
      "uri": "data:application/octet-stream;base64,",
      "byteLength": 1896
    },
    {
      "uri": "data:application/octet-stream;base64,",
      "byteLength": 6912
    },
    {
      "uri": "data:application/octet-stream;base64,",
      "byteLength": 648
    },
    {
      "uri": "data:application/octet-stream;base64,",
      "byteLength": 6144
    },
    {
      "uri": "data:application/octet-stream;base64,",
      "byteLength": 576
    }
  ],
  "images": [
    {
      "bufferView": 0,
      "mimeType": "image/png"
    }
  ],
  "meshes": [
    {
      "primitives": [
        {
          "indices": 0,
          "material": 0,
          "attributes": {
            "POSITION": 1,
            "NORMAL": 2,
            "TEXCOORD_0": 3
          }
        }
      ]
    },
    {
      "primitives": [
        {
          "indices": 4,
          "material": 0,
          "attributes": {
            "POSITION": 5,
            "NORMAL": 6,
            "TEXCOORD_0": 7
          }
        }
      ]
    },
    {
      "primitives": [
        {
          "indices": 8,
          "material": 0,
          "attributes": {
            "POSITION": 9,
            "NORMAL": 10,
            "TEXCOORD_0": 11
          }
        }
      ]
    },
    {
      "primitives": [
        {
          "indices": 12,
          "material": 0,
          "attributes": {
            "POSITION": 13,
            "NORMAL": 14,
            "TEXCOORD_0": 15
          }
        }
      ]
    },
    {
      "primitives": [
        {
          "indices": 16,
          "material": 0,
          "attributes": {
            "POSITION": 17,
            "NORMAL": 18,
            "TEXCOORD_0": 19
          }
        }
      ]
    },
    {
      "primitives": [
        {
          "indices": 20,
          "material": 0,
          "attributes": {
            "POSITION": 21,
            "NORMAL": 22,
            "TEXCOORD_0": 23
          }
        }
      ]
    },
    {
      "primitives": [
        {
          "indices": 24,
          "material": 0,
          "attributes": {
            "POSITION": 25,
            "NORMAL": 26,
            "TEXCOORD_0": 27
          }
        }
      ]
    },
    {
      "primitives": [
        {
          "indices": 28,
          "material": 0,
          "attributes": {
            "POSITION": 29,
            "NORMAL": 30,
            "TEXCOORD_0": 31
          }
        }
      ]
    }
  ],
  "materials": [
    {
      "name": "Material.1",
      "pbrMetallicRoughness": {
        "baseColorTexture": {
          "index": 0
        },
        "metallicFactor": 0.200000003,
        "roughnessFactor": 0.5
      }
    }
  ],
  "nodes": [
    {
      "children": [ 9 ],
      "matrix": [1, 0, 0, 0, 0, 0, -1, 0, 0, 1, 0, 0, 0, 0, 0, 1]
    },
    {
      "mesh": 0,
      "translation": [-16, -16, 0]
    },
    {
      "mesh": 1,
      "translation": [0, -16, 0]
    },
    {
      "mesh": 2,
      "translation": [-16, 0, 0]
    },
    {
      "mesh": 3,
      "translation": [0, 0, 0]
    },
    {
      "mesh": 4,
      "translation": [-16, -16, 16]
    },
    {
      "mesh": 5,
      "translation": [-16, 0, 16]
    },
    {
      "mesh": 6,
      "translation": [0, -16, 16]
    },
    {
      "mesh": 7,
      "translation": [0, 0, 16]
    },
    {
      "children": [ 1, 2, 3, 4, 5, 6, 7, 8 ]
    }
  ],
  "scenes": [
    {
      "nodes": [ 0 ]
    }
  ],
  "textures": [
    {
      "source": 0
    }
  ]
}
