{
  "accessors": [
    {
      "bufferView": 1,
      "componentType": 5123,
      "type": "SCALAR",
      "count": 354
    },
    {
      "bufferView": 2,
      "componentType": 5126,
      "type": "VEC3",
      "count": 236,
      "min": [15, 14, 3],
      "max": [16, 16, 16]
    },
    {
      "bufferView": 2,
      "componentType": 5126,
      "type": "VEC3",
      "byteOffset": 12,
      "count": 236
    },
    {
      "bufferView": 2,
      "componentType": 5126,
      "type": "VEC2",
      "byteOffset": 24,
      "count": 236
    },
    {
      "bufferView": 3,
      "componentType": 5123,
      "type": "SCALAR",
      "count": 204
    },
    {
      "bufferView": 4,
      "componentType": 5126,
      "type": "VEC3",
      "count": 136,
      "min": [0, 14, 4],
      "max": [1, 15, 12]
    },
    {
      "bufferView": 4,
      "componentType": 5126,
      "type": "VEC3",
      "byteOffset": 12,
      "count": 136
    },
    {
      "bufferView": 4,
      "componentType": 5126,
      "type": "VEC2",
      "byteOffset": 24,
      "count": 136
    },
    {
      "bufferView": 5,
      "componentType": 5123,
      "type": "SCALAR",
      "count": 276
    },
    {
      "bufferView": 6,
      "componentType": 5126,
      "type": "VEC3",
      "count": 184,
      "min": [14, 0, 4],
      "max": [16, 1, 16]
    },
    {
      "bufferView": 6,
      "componentType": 5126,
      "type": "VEC3",
      "byteOffset": 12,
      "count": 184
    },
    {
      "bufferView": 6,
      "componentType": 5126,
      "type": "VEC2",
      "byteOffset": 24,
      "count": 184
    },
    {
      "bufferView": 7,
      "componentType": 5123,
      "type": "SCALAR",
      "count": 450
    },
    {
      "bufferView": 8,
      "componentType": 5126,
      "type": "VEC3",
      "count": 300,
      "min": [14, 14, 0],
      "max": [16, 16, 10]
    },
    {
      "bufferView": 8,
      "componentType": 5126,
      "type": "VEC3",
      "byteOffset": 12,
      "count": 300
    },
    {
      "bufferView": 8,
      "componentType": 5126,
      "type": "VEC2",
      "byteOffset": 24,
      "count": 300
    },
    {
      "bufferView": 9,
      "componentType": 5123,
      "type": "SCALAR",
      "count": 204
    },
    {
      "bufferView": 10,
      "componentType": 5126,
      "type": "VEC3",
      "count": 136,
      "min": [0, 0, 1],
      "max": [1, 1, 9]
    },
    {
      "bufferView": 10,
      "componentType": 5126,
      "type": "VEC3",
      "byteOffset": 12,
      "count": 136
    },
    {
      "bufferView": 10,
      "componentType": 5126,
      "type": "VEC2",
      "byteOffset": 24,
      "count": 136
    }
  ],
  "asset": {
    "generator": "goxel",
    "version": "2.0"
  },
  "bufferViews": [
    {
      "buffer": 0,
      "byteLength": 78
    },
    {
      "buffer": 2,
      "byteLength": 708
    },
    {
      "buffer": 1,
      "byteLength": 7552,
      "byteStride": 32
    },
    {
      "buffer": 4,
      "byteLength": 408
    },
    {
      "buffer": 3,
      "byteLength": 4352,
      "byteStride": 32
    },
    {
      "buffer": 6,
      "byteLength": 552
    },
    {
      "buffer": 5,
      "byteLength": 5888,
      "byteStride": 32
    },
    {
      "buffer": 8,
      "byteLength": 900
    },
    {
      "buffer": 7,
      "byteLength": 9600,
      "byteStride": 32
    },
    {
      "buffer": 10,
      "byteLength": 408
    },
    {
      "buffer": 9,
      "byteLength": 4352,
      "byteStride": 32
    }
  ],
  "buffers": [
    {
      "uri": "data:application/octet-stream;base64,",
      "byteLength": 78
    },
    {
      "uri": "data:application/octet-stream;base64,",
      "byteLength": 7552
    },
    {
      "uri": "data:application/octet-stream;base64,",
      "byteLength": 708
    },
    {
      "uri": "data:application/octet-stream;base64,",
      "byteLength": 4352
    },
    {
      "uri": "data:application/octet-stream;base64,",
      "byteLength": 408
    },
    {
      "uri": "data:application/octet-stream;base64,",
      "byteLength": 5888
    },
    {
      "uri": "data:application/octet-stream;base64,",
      "byteLength": 552
    },
    {
      "uri": "data:application/octet-stream;base64,",
      "byteLength": 9600
    },
    {
      "uri": "data:application/octet-stream;base64,",
      "byteLength": 900
    },
    {
      "uri": "data:application/octet-stream;base64,",
      "byteLength": 4352
    },
    {
      "uri": "data:application/octet-stream;base64,",
      "byteLength": 408
    }
  ],
  "images": [
    {
      "bufferView": 0,
      "mimeType": "image/png"
    }
  ],
  "meshes": [
    {
      "primitives": [
        {
          "indices": 0,
          "material": 0,
          "attributes": {
            "POSITION": 1,
            "NORMAL": 2,
            "TEXCOORD_0": 3
          }
        }
      ]
    },
    {
      "primitives": [
        {
          "indices": 4,
          "material": 0,
          "attributes": {
            "POSITION": 5,
            "NORMAL": 6,
            "TEXCOORD_0": 7
          }
        }
      ]
    },
    {
      "primitives": [
        {
          "indices": 8,
          "material": 0,
          "attributes": {
            "POSITION": 9,
            "NORMAL": 10,
            "TEXCOORD_0": 11
          }
        }
      ]
    },
    {
      "primitives": [
        {
          "indices": 12,
          "material": 0,
          "attributes": {
            "POSITION": 13,
            "NORMAL": 14,
            "TEXCOORD_0": 15
          }
        }
      ]
    },
    {
      "primitives": [
        {
          "indices": 16,
          "material": 0,
          "attributes": {
            "POSITION": 17,
            "NORMAL": 18,
            "TEXCOORD_0": 19
          }
        }
      ]
    }
  ],
  "materials": [
    {
      "name": "Material.1",
      "pbrMetallicRoughness": {
        "baseColorTexture": {
          "index": 0
        },
        "metallicFactor": 0.200000003,
        "roughnessFactor": 0.5
      }
    }
  ],
  "nodes": [
    {
      "children": [ 6 ],
      "matrix": [1, 0, 0, 0, 0, 0, -1, 0, 0, 1, 0, 0, 0, 0, 0, 1]
    },
    {
      "mesh": 0,
      "translation": [-16, -16, 0]
    },
    {
      "mesh": 1,
      "translation": [0, -16, 0]
    },
    {
      "mesh": 2,
      "translation": [-16, 0, 0]
    },
    {
      "mesh": 3,
      "translation": [-16, -16, 16]
    },
    {
      "mesh": 4,
      "translation": [0, 0, 16]
    },
    {
      "children": [ 1, 2, 3, 4, 5 ]
    }
  ],
  "scenes": [
    {
      "nodes": [ 0 ]
    }
  ],
  "textures": [
    {
      "source": 0
    }
  ]
}
