{
  "accessors": [
    {
      "bufferView": 1,
      "componentType": 5123,
      "type": "SCALAR",
      "count": 1110
    },
    {
      "bufferView": 2,
      "componentType": 5126,
      "type": "VEC3",
      "count": 740,
      "min": [10, 11, 0],
      "max": [16, 16, 16]
    },
    {
      "bufferView": 2,
      "componentType": 5126,
      "type": "VEC3",
      "byteOffset": 12,
      "count": 740
    },
    {
      "bufferView": 2,
      "componentType": 5126,
      "type": "VEC2",
      "byteOffset": 24,
      "count": 740
    },
    {
      "bufferView": 3,
      "componentType": 5123,
      "type": "SCALAR",
      "count": 1092
    },
    {
      "bufferView": 4,
      "componentType": 5126,
      "type": "VEC3",
      "count": 728,
      "min": [10, 0, 0],
      "max": [16, 5, 16]
    },
    {
      "bufferView": 4,
      "componentType": 5126,
      "type": "VEC3",
      "byteOffset": 12,
      "count": 728
    },
    {
      "bufferView": 4,
      "componentType": 5126,
      "type": "VEC2",
      "byteOffset": 24,
      "count": 728
    },
    {
      "bufferView": 5,
      "componentType": 5123,
      "type": "SCALAR",
      "count": 762
    },
    {
      "bufferView": 6,
      "componentType": 5126,
      "type": "VEC3",
      "count": 508,
      "min": [0, 0, 0],
      "max": [4, 5, 16]
    },
    {
      "bufferView": 6,
      "componentType": 5126,
      "type": "VEC3",
      "byteOffset": 12,
      "count": 508
    },
    {
      "bufferView": 6,
      "componentType": 5126,
      "type": "VEC2",
      "byteOffset": 24,
      "count": 508
    },
    {
      "bufferView": 7,
      "componentType": 5123,
      "type": "SCALAR",
      "count": 726
    },
    {
      "bufferView": 8,
      "componentType": 5126,
      "type": "VEC3",
      "count": 484,
      "min": [0, 11, 0],
      "max": [4, 16, 16]
    },
    {
      "bufferView": 8,
      "componentType": 5126,
      "type": "VEC3",
      "byteOffset": 12,
      "count": 484
    },
    {
      "bufferView": 8,
      "componentType": 5126,
      "type": "VEC2",
      "byteOffset": 24,
      "count": 484
    },
    {
      "bufferView": 9,
      "componentType": 5123,
      "type": "SCALAR",
      "count": 636
    },
    {
      "bufferView": 10,
      "componentType": 5126,
      "type": "VEC3",
      "count": 424,
      "min": [11, 12, 0],
      "max": [16, 16, 13]
    },
    {
      "bufferView": 10,
      "componentType": 5126,
      "type": "VEC3",
      "byteOffset": 12,
      "count": 424
    },
    {
      "bufferView": 10,
      "componentType": 5126,
      "type": "VEC2",
      "byteOffset": 24,
      "count": 424
    },
    {
      "bufferView": 11,
      "componentType": 5123,
      "type": "SCALAR",
      "count": 630
    },
    {
      "bufferView": 12,
      "componentType": 5126,
      "type": "VEC3",
      "count": 420,
      "min": [11, 0, 0],
      "max": [16, 4, 13]
    },
    {
      "bufferView": 12,
      "componentType": 5126,
      "type": "VEC3",
      "byteOffset": 12,
      "count": 420
    },
    {
      "bufferView": 12,
      "componentType": 5126,
      "type": "VEC2",
      "byteOffset": 24,
      "count": 420
    },
    {
      "bufferView": 13,
      "componentType": 5123,
      "type": "SCALAR",
      "count": 360
    },
    {
      "bufferView": 14,
      "componentType": 5126,
      "type": "VEC3",
      "count": 240,
      "min": [0, 12, 0],
      "max": [3, 16, 10]
    },
    {
      "bufferView": 14,
      "componentType": 5126,
      "type": "VEC3",
      "byteOffset": 12,
      "count": 240
    },
    {
      "bufferView": 14,
      "componentType": 5126,
      "type": "VEC2",
      "byteOffset": 24,
      "count": 240
    },
    {
      "bufferView": 15,
      "componentType": 5123,
      "type": "SCALAR",
      "count": 384
    },
    {
      "bufferView": 16,
      "componentType": 5126,
      "type": "VEC3",
      "count": 256,
      "min": [0, 0, 0],
      "max": [3, 4, 11]
    },
    {
      "bufferView": 16,
      "componentType": 5126,
      "type": "VEC3",
      "byteOffset": 12,
      "count": 256
    },
    {
      "bufferView": 16,
      "componentType": 5126,
      "type": "VEC2",
      "byteOffset": 24,
      "count": 256
    }
  ],
  "asset": {
    "generator": "goxel",
    "version": "2.0"
  },
  "bufferViews": [
    {
      "buffer": 0,
      "byteLength": 92
    },
    {
      "buffer": 2,
      "byteLength": 2220
    },
    {
      "buffer": 1,
      "byteLength": 23680,
      "byteStride": 32
    },
    {
      "buffer": 4,
      "byteLength": 2184
    },
    {
      "buffer": 3,
      "byteLength": 23296,
      "byteStride": 32
    },
    {
      "buffer": 6,
      "byteLength": 1524
    },
    {
      "buffer": 5,
      "byteLength": 16256,
      "byteStride": 32
    },
    {
      "buffer": 8,
      "byteLength": 1452
    },
    {
      "buffer": 7,
      "byteLength": 15488,
      "byteStride": 32
    },
    {
      "buffer": 10,
      "byteLength": 1272
    },
    {
      "buffer": 9,
      "byteLength": 13568,
      "byteStride": 32
    },
    {
      "buffer": 12,
      "byteLength": 1260
    },
    {
      "buffer": 11,
      "byteLength": 13440,
      "byteStride": 32
    },
    {
      "buffer": 14,
      "byteLength": 720
    },
    {
      "buffer": 13,
      "byteLength": 7680,
      "byteStride": 32
    },
    {
      "buffer": 16,
      "byteLength": 768
    },
    {
      "buffer": 15,
      "byteLength": 8192,
      "byteStride": 32
    }
  ],
  "buffers": [
    {
      "uri": "data:application/octet-stream;base64,",
      "byteLength": 92
    },
    {
      "uri": "data:application/octet-stream;base64,",
      "byteLength": 23680
    },
    {
      "uri": "data:application/octet-stream;base64,",
      "byteLength": 2220
    },
    {
      "uri": "data:application/octet-stream;base64,",
      "byteLength": 23296
    },
    {
      "uri": "data:application/octet-stream;base64,",
      "byteLength": 2184
    },
    {
      "uri": "data:application/octet-stream;base64,",
      "byteLength": 16256
    },
    {
      "uri": "data:application/octet-stream;base64,",
      "byteLength": 1524
    },
    {
      "uri": "data:application/octet-stream;base64,",
      "byteLength": 15488
    },
    {
      "uri": "data:application/octet-stream;base64,",
      "byteLength": 1452
    },
    {
      "uri": "data:application/octet-stream;base64,",
      "byteLength": 13568
    },
    {
      "uri": "data:application/octet-stream;base64,",
      "byteLength": 1272
    },
    {
      "uri": "data:application/octet-stream;base64,",
      "byteLength": 13440
    },
    {
      "uri": "data:application/octet-stream;base64,",
      "byteLength": 1260
    },
    {
      "uri": "data:application/octet-stream;base64,",
      "byteLength": 7680
    },
    {
      "uri": "data:application/octet-stream;base64,",
      "byteLength": 720
    },
    {
      "uri": "data:application/octet-stream;base64,",
      "byteLength": 8192
    },
    {
      "uri": "data:application/octet-stream;base64,",
      "byteLength": 768
    }
  ],
  "images": [
    {
      "bufferView": 0,
      "mimeType": "image/png"
    }
  ],
  "meshes": [
    {
      "primitives": [
        {
          "indices": 0,
          "material": 0,
          "attributes": {
            "POSITION": 1,
            "NORMAL": 2,
            "TEXCOORD_0": 3
          }
        }
      ]
    },
    {
      "primitives": [
        {
          "indices": 4,
          "material": 0,
          "attributes": {
            "POSITION": 5,
            "NORMAL": 6,
            "TEXCOORD_0": 7
          }
        }
      ]
    },
    {
      "primitives": [
        {
          "indices": 8,
          "material": 0,
          "attributes": {
            "POSITION": 9,
            "NORMAL": 10,
            "TEXCOORD_0": 11
          }
        }
      ]
    },
    {
      "primitives": [
        {
          "indices": 12,
          "material": 0,
          "attributes": {
            "POSITION": 13,
            "NORMAL": 14,
            "TEXCOORD_0": 15
          }
        }
      ]
    },
    {
      "primitives": [
        {
          "indices": 16,
          "material": 0,
          "attributes": {
            "POSITION": 17,
            "NORMAL": 18,
            "TEXCOORD_0": 19
          }
        }
      ]
    },
    {
      "primitives": [
        {
          "indices": 20,
          "material": 0,
          "attributes": {
            "POSITION": 21,
            "NORMAL": 22,
            "TEXCOORD_0": 23
          }
        }
      ]
    },
    {
      "primitives": [
        {
          "indices": 24,
          "material": 0,
          "attributes": {
            "POSITION": 25,
            "NORMAL": 26,
            "TEXCOORD_0": 27
          }
        }
      ]
    },
    {
      "primitives": [
        {
          "indices": 28,
          "material": 0,
          "attributes": {
            "POSITION": 29,
            "NORMAL": 30,
            "TEXCOORD_0": 31
          }
        }
      ]
    }
  ],
  "materials": [
    {
      "name": "Material.1",
      "pbrMetallicRoughness": {
        "baseColorTexture": {
          "index": 0
        },
        "metallicFactor": 0.200000003,
        "roughnessFactor": 0.5
      }
    }
  ],
  "nodes": [
    {
      "children": [ 9 ],
      "matrix": [1, 0, 0, 0, 0, 0, -1, 0, 0, 1, 0, 0, 0, 0, 0, 1]
    },
    {
      "mesh": 0,
      "translation": [-16, -16, 0]
    },
    {
      "mesh": 1,
      "translation": [-16, 0, 0]
    },
    {
      "mesh": 2,
      "translation": [0, 0, 0]
    },
    {
      "mesh": 3,
      "translation": [0, -16, 0]
    },
    {
      "mesh": 4,
      "translation": [-16, -16, 16]
    },
    {
      "mesh": 5,
      "translation": [-16, 0, 16]
    },
    {
      "mesh": 6,
      "translation": [0, -16, 16]
    },
    {
      "mesh": 7,
      "translation": [0, 0, 16]
    },
    {
      "children": [ 1, 2, 3, 4, 5, 6, 7, 8 ]
    }
  ],
  "scenes": [
    {
      "nodes": [ 0 ]
    }
  ],
  "textures": [
    {
      "source": 0
    }
  ]
}
