{
  "accessors": [
    {
      "bufferView": 1,
      "componentType": 5123,
      "type": "SCALAR",
      "count": 1686
    },
    {
      "bufferView": 2,
      "componentType": 5126,
      "type": "VEC3",
      "count": 1124,
      "min": [7, 10, 0],
      "max": [16, 16, 16]
    },
    {
      "bufferView": 2,
      "componentType": 5126,
      "type": "VEC3",
      "byteOffset": 12,
      "count": 1124
    },
    {
      "bufferView": 2,
      "componentType": 5126,
      "type": "VEC2",
      "byteOffset": 24,
      "count": 1124
    },
    {
      "bufferView": 3,
      "componentType": 5123,
      "type": "SCALAR",
      "count": 504
    },
    {
      "bufferView": 4,
      "componentType": 5126,
      "type": "VEC3",
      "count": 336,
      "min": [0, 10, 0],
      "max": [6, 16, 1]
    },
    {
      "bufferView": 4,
      "componentType": 5126,
      "type": "VEC3",
      "byteOffset": 12,
      "count": 336
    },
    {
      "bufferView": 4,
      "componentType": 5126,
      "type": "VEC2",
      "byteOffset": 24,
      "count": 336
    },
    {
      "bufferView": 5,
      "componentType": 5123,
      "type": "SCALAR",
      "count": 1722
    },
    {
      "bufferView": 6,
      "componentType": 5126,
      "type": "VEC3",
      "count": 1148,
      "min": [7, 0, 0],
      "max": [16, 6, 16]
    },
    {
      "bufferView": 6,
      "componentType": 5126,
      "type": "VEC3",
      "byteOffset": 12,
      "count": 1148
    },
    {
      "bufferView": 6,
      "componentType": 5126,
      "type": "VEC2",
      "byteOffset": 24,
      "count": 1148
    },
    {
      "bufferView": 7,
      "componentType": 5123,
      "type": "SCALAR",
      "count": 504
    },
    {
      "bufferView": 8,
      "componentType": 5126,
      "type": "VEC3",
      "count": 336,
      "min": [0, 0, 0],
      "max": [6, 6, 1]
    },
    {
      "bufferView": 8,
      "componentType": 5126,
      "type": "VEC3",
      "byteOffset": 12,
      "count": 336
    },
    {
      "bufferView": 8,
      "componentType": 5126,
      "type": "VEC2",
      "byteOffset": 24,
      "count": 336
    },
    {
      "bufferView": 9,
      "componentType": 5123,
      "type": "SCALAR",
      "count": 186
    },
    {
      "bufferView": 10,
      "componentType": 5126,
      "type": "VEC3",
      "count": 124,
      "min": [9, 10, 0],
      "max": [11, 16, 1]
    },
    {
      "bufferView": 10,
      "componentType": 5126,
      "type": "VEC3",
      "byteOffset": 12,
      "count": 124
    },
    {
      "bufferView": 10,
      "componentType": 5126,
      "type": "VEC2",
      "byteOffset": 24,
      "count": 124
    },
    {
      "bufferView": 11,
      "componentType": 5123,
      "type": "SCALAR",
      "count": 186
    },
    {
      "bufferView": 12,
      "componentType": 5126,
      "type": "VEC3",
      "count": 124,
      "min": [9, 0, 0],
      "max": [11, 6, 1]
    },
    {
      "bufferView": 12,
      "componentType": 5126,
      "type": "VEC3",
      "byteOffset": 12,
      "count": 124
    },
    {
      "bufferView": 12,
      "componentType": 5126,
      "type": "VEC2",
      "byteOffset": 24,
      "count": 124
    }
  ],
  "asset": {
    "generator": "goxel",
    "version": "2.0"
  },
  "bufferViews": [
    {
      "buffer": 0,
      "byteLength": 91
    },
    {
      "buffer": 2,
      "byteLength": 3372
    },
    {
      "buffer": 1,
      "byteLength": 35968,
      "byteStride": 32
    },
    {
      "buffer": 4,
      "byteLength": 1008
    },
    {
      "buffer": 3,
      "byteLength": 10752,
      "byteStride": 32
    },
    {
      "buffer": 6,
      "byteLength": 3444
    },
    {
      "buffer": 5,
      "byteLength": 36736,
      "byteStride": 32
    },
    {
      "buffer": 8,
      "byteLength": 1008
    },
    {
      "buffer": 7,
      "byteLength": 10752,
      "byteStride": 32
    },
    {
      "buffer": 10,
      "byteLength": 372
    },
    {
      "buffer": 9,
      "byteLength": 3968,
      "byteStride": 32
    },
    {
      "buffer": 12,
      "byteLength": 372
    },
    {
      "buffer": 11,
      "byteLength": 3968,
      "byteStride": 32
    }
  ],
  "buffers": [
    {
      "uri": "data:application/octet-stream;base64,",
      "byteLength": 91
    },
    {
      "uri": "data:application/octet-stream;base64,",
      "byteLength": 35968
    },
    {
      "uri": "data:application/octet-stream;base64,",
      "byteLength": 3372
    },
    {
      "uri": "data:application/octet-stream;base64,",
      "byteLength": 10752
    },
    {
      "uri": "data:application/octet-stream;base64,",
      "byteLength": 1008
    },
    {
      "uri": "data:application/octet-stream;base64,",
      "byteLength": 36736
    },
    {
      "uri": "data:application/octet-stream;base64,",
      "byteLength": 3444
    },
    {
      "uri": "data:application/octet-stream;base64,",
      "byteLength": 10752
    },
    {
      "uri": "data:application/octet-stream;base64,",
      "byteLength": 1008
    },
    {
      "uri": "data:application/octet-stream;base64,",
      "byteLength": 3968
    },
    {
      "uri": "data:application/octet-stream;base64,",
      "byteLength": 372
    },
    {
      "uri": "data:application/octet-stream;base64,",
      "byteLength": 3968
    },
    {
      "uri": "data:application/octet-stream;base64,",
      "byteLength": 372
    }
  ],
  "images": [
    {
      "bufferView": 0,
      "mimeType": "image/png"
    }
  ],
  "meshes": [
    {
      "primitives": [
        {
          "indices": 0,
          "material": 0,
          "attributes": {
            "POSITION": 1,
            "NORMAL": 2,
            "TEXCOORD_0": 3
          }
        }
      ]
    },
    {
      "primitives": [
        {
          "indices": 4,
          "material": 0,
          "attributes": {
            "POSITION": 5,
            "NORMAL": 6,
            "TEXCOORD_0": 7
          }
        }
      ]
    },
    {
      "primitives": [
        {
          "indices": 8,
          "material": 0,
          "attributes": {
            "POSITION": 9,
            "NORMAL": 10,
            "TEXCOORD_0": 11
          }
        }
      ]
    },
    {
      "primitives": [
        {
          "indices": 12,
          "material": 0,
          "attributes": {
            "POSITION": 13,
            "NORMAL": 14,
            "TEXCOORD_0": 15
          }
        }
      ]
    },
    {
      "primitives": [
        {
          "indices": 16,
          "material": 0,
          "attributes": {
            "POSITION": 17,
            "NORMAL": 18,
            "TEXCOORD_0": 19
          }
        }
      ]
    },
    {
      "primitives": [
        {
          "indices": 20,
          "material": 0,
          "attributes": {
            "POSITION": 21,
            "NORMAL": 22,
            "TEXCOORD_0": 23
          }
        }
      ]
    }
  ],
  "materials": [
    {
      "name": "Material.1",
      "pbrMetallicRoughness": {
        "baseColorTexture": {
          "index": 0
        },
        "metallicFactor": 0.200000003,
        "roughnessFactor": 0.5
      }
    }
  ],
  "nodes": [
    {
      "children": [ 7 ],
      "matrix": [1, 0, 0, 0, 0, 0, -1, 0, 0, 1, 0, 0, 0, 0, 0, 1]
    },
    {
      "mesh": 0,
      "translation": [-16, -16, 0]
    },
    {
      "mesh": 1,
      "translation": [0, -16, 0]
    },
    {
      "mesh": 2,
      "translation": [-16, 0, 0]
    },
    {
      "mesh": 3,
      "translation": [0, 0, 0]
    },
    {
      "mesh": 4,
      "translation": [-16, -16, 16]
    },
    {
      "mesh": 5,
      "translation": [-16, 0, 16]
    },
    {
      "children": [ 1, 2, 3, 4, 5, 6 ]
    }
  ],
  "scenes": [
    {
      "nodes": [ 0 ]
    }
  ],
  "textures": [
    {
      "source": 0
    }
  ]
}
